<svg width="30" height="30" fill="none" xmlns="http://www.w3.org/2000/svg"><path d="M23.872 2C25.56 2 26.92 3.326 27 4.89V30l-3.213-2.652-1.763-1.558-1.928-1.632.803 2.57H4.048C2.364 26.728 1 25.488 1 23.84V4.895c0-1.563 1.365-2.89 3.053-2.89h19.81L23.872 2Zm-7.345 6.63h-.038l-.244.233c2.49.702 3.696 1.796 3.696 1.796-1.604-.78-3.054-1.172-4.498-1.33-1.041-.156-2.087-.074-2.969 0h-.244c-.563 0-1.763.236-3.372.86-.558.237-.881.392-.881.392s1.2-1.171 3.854-1.795l-.164-.155s-2.007-.078-4.173 1.481c0 0-2.167 3.669-2.167 8.19 0 0 1.2 2.027 4.494 2.105 0 0 .482-.62.966-1.167-1.848-.547-2.57-1.64-2.57-1.64s.164.077.403.232h.07c.038 0 .057.019.075.037v.009c.02.018.038.031.07.031.4.16.793.314 1.117.47.563.232 1.28.468 2.162.624 1.117.16 2.396.233 3.855 0 .717-.16 1.44-.31 2.162-.625.464-.233 1.04-.464 1.674-.86 0 0-.718 1.093-2.646 1.64.395.542.952 1.166.952 1.166 3.296-.072 4.577-2.1 4.647-2.014 0-4.516-2.18-8.19-2.18-8.19-1.961-1.417-3.8-1.47-4.123-1.47l.066-.024.006.005Zm.202 5.151c.844 0 1.524.697 1.524 1.554 0 .866-.684 1.563-1.524 1.563-.845 0-1.525-.698-1.525-1.554 0-.867.685-1.563 1.525-1.563Zm-5.454 0c.839 0 1.52.697 1.52 1.554 0 .866-.685 1.563-1.525 1.563-.844 0-1.529-.698-1.529-1.554 0-.867.685-1.563 1.53-1.563h.004Z" fill="#fff"/></svg>