<svg width="30" height="30" viewBox="0 0 30 30" fill="none" xmlns="http://www.w3.org/2000/svg">
<path d="M23.8719 2C25.5602 2 26.9199 3.3265 27 4.88925V30L23.7873 27.3479L22.0242 25.7895L20.0964 24.1576L20.8987 26.7284H4.04797C2.36416 26.7284 1 25.4885 1 23.8391V4.8945C1 3.33175 2.36506 2.00525 4.05337 2.00525H23.8629L23.8719 2ZM16.5271 8.63075H16.4892L16.2452 8.8635C18.7358 9.56525 19.9406 10.659 19.9406 10.659C18.3369 9.87937 16.8872 9.48737 15.4429 9.32812C14.402 9.17325 13.3557 9.2555 12.4742 9.32812H12.2302C11.6674 9.32812 10.4672 9.56525 8.85808 10.1891C8.29981 10.4263 7.97655 10.5811 7.97655 10.5811C7.97655 10.5811 9.17683 9.4095 11.8313 8.78563L11.6674 8.63075C11.6674 8.63075 9.66036 8.55287 7.49392 10.1121C7.49392 10.1121 5.32748 13.781 5.32748 18.3012C5.32748 18.3012 6.52776 20.3295 9.82064 20.4065C9.82064 20.4065 10.3033 19.787 10.7868 19.2401C8.93912 18.6932 8.21697 17.5995 8.21697 17.5995C8.21697 17.5995 8.38085 17.6774 8.62036 17.8322H8.6906C8.72842 17.8322 8.74733 17.8506 8.76533 17.869V17.8777C8.78424 17.8961 8.80315 17.9092 8.83557 17.9092C9.23446 18.0685 9.62795 18.2234 9.9521 18.3783C10.5149 18.611 11.2325 18.8472 12.114 19.003C13.2306 19.1622 14.5101 19.2357 15.9688 19.003C16.6864 18.8437 17.4086 18.6933 18.1307 18.3783C18.5954 18.1455 19.1716 17.9136 19.8046 17.5172C19.8046 17.5172 19.087 18.611 17.1592 19.1579C17.5536 19.7004 18.1109 20.3242 18.1109 20.3242C21.4074 20.2516 22.6878 18.2234 22.7581 18.31C22.7581 13.7941 20.5772 10.1209 20.5772 10.1209C18.617 8.70338 16.7783 8.64912 16.455 8.64912L16.5208 8.62637L16.5271 8.63075ZM16.7288 13.781C17.5734 13.781 18.2532 14.4784 18.2532 15.335C18.2532 16.2012 17.5689 16.8977 16.7288 16.8977C15.8842 16.8977 15.2043 16.2004 15.2043 15.3438C15.2043 14.4775 15.8887 13.781 16.7288 13.781ZM11.2748 13.781C12.114 13.781 12.7948 14.4784 12.7948 15.335C12.7948 16.2012 12.1104 16.8977 11.2703 16.8977C10.4257 16.8977 9.7414 16.2004 9.7414 15.3438C9.7414 14.4775 10.4257 13.781 11.2703 13.781H11.2748Z" fill="white"/>
</svg>
