<svg width="400" height="139" fill="none" xmlns="http://www.w3.org/2000/svg"><path d="M399 130.994 394.086 138l-4.913-3.892-6.879-12.455-3.931 6.228-3.931-3.892-7.862 3.892-3.93-7.784-9.828-7.785-8.844 2.336-3.931-11.676-8.844-12.455-7.862 12.455-3.931-3.114-3.931 6.227-4.913-8.562-14.741-10.12-3.931 10.12-6.879-12.455-8.845-5.449-5.896 5.45-2.948-14.79-4.914 7.005-8.844-7.006-5.896 3.892V62.494l-9.827-3.892-5.897 15.568-6.879-6.227v9.341l-10.81-7.006-5.896 14.79-7.862 5.449-5.896-5.449-6.879-19.46-5.896 11.676-3.931-11.676-11.793 8.562v-8.562l-5.896-7.006v11.676l-9.827 14.79-2.948-10.898-1.966-9.34-2.948 5.448-6.879-11.676-4.913 6.227-5.897 18.682-6.879-3.892-5.896-9.34-5.896 3.891-4.914-9.34-8.844-2.336V45.37l-7.862-2.335v-9.34l-12.775 3.891-2.949-17.903-7.861-7.784v10.898l-4.914 10.897H51.12l-5.897-23.352-5.896 12.455-3.93-5.45-5.897-1.556-3.931-9.341-6.88 5.449-1.473-3.503L7.879 1 1 15.79" stroke="#68CDB4" stroke-width="2" stroke-linecap="round" stroke-linejoin="round"/></svg>