<svg width="400" height="139" viewBox="0 0 400 139" fill="none" xmlns="http://www.w3.org/2000/svg">
<path d="M399 130.994L394.086 138L389.173 134.108L382.294 121.653L378.363 127.881L374.432 123.989L366.57 127.881L362.64 120.097L352.812 112.312L343.968 114.648L340.037 102.972L331.193 90.517L323.331 102.972L319.4 99.8579L315.469 106.085L310.556 97.5227L295.815 87.4034L291.884 97.5227L285.005 85.0682L276.16 79.6193L270.264 85.0682L267.316 70.2784L262.402 77.2841L253.558 70.2784L247.662 74.1704V62.4943L237.835 58.6023L231.938 74.1704L225.059 67.9432V77.2841L214.249 70.2784L208.353 85.0682L200.491 90.517L194.595 85.0682L187.716 65.6079L181.82 77.2841L177.889 65.6079L166.096 74.1704V65.6079L160.2 58.6023V70.2784L150.373 85.0682L147.425 74.1704L145.459 64.8295L142.511 70.2784L135.632 58.6023L130.719 64.8295L124.822 83.5114L117.943 79.6193L112.047 70.2784L106.151 74.1704L101.237 64.8295L92.3926 62.4943V45.3693L84.5309 43.0341V33.6932L71.7556 37.5852L68.8074 19.6818L60.9457 11.8977V22.7955L56.0321 33.6932H51.1185L45.2222 10.3409L39.3259 22.7955L35.3951 17.3466L29.4987 15.7898L25.5679 6.44886L18.6889 11.8977L17.2148 8.39489L7.87903 1L1.00001 15.7898" stroke="#68CDB4" stroke-width="2" stroke-linecap="round" stroke-linejoin="round"/>
</svg>
