<svg width="52" height="52" fill="none" xmlns="http://www.w3.org/2000/svg"><path d="M47.25 11.125a6.375 6.375 0 1 1-12.75 0 6.375 6.375 0 0 1 12.75 0Z" fill="#686868"/><path fill-rule="evenodd" clip-rule="evenodd" d="M26 4.75c2.973 0 5.504 0 7.675.08A9.562 9.562 0 0 0 47.17 18.326c.081 2.171.081 4.702.081 7.675 0 10.017 0 15.026-3.113 18.137C41.028 47.25 36.017 47.25 26 47.25c-10.017 0-15.026 0-18.139-3.113C4.75 41.028 4.75 36.017 4.75 26c0-10.017 0-15.026 3.111-18.139C10.976 4.75 15.983 4.75 26 4.75Zm5.313 18.594a1.594 1.594 0 0 1 0-3.188h5.312a1.594 1.594 0 0 1 1.594 1.594v5.313a1.594 1.594 0 0 1-3.188 0v-1.467l-4.277 4.278a3.719 3.719 0 0 1-5.258 0l-3.37-3.37a.531.531 0 0 0-.752 0L16.5 31.376a1.594 1.594 0 0 1-2.252-2.252l4.872-4.873a3.719 3.719 0 0 1 5.258 0l3.37 3.37a.531.531 0 0 0 .752 0l4.276-4.277h-1.465Z" fill="#686868"/></svg>