<svg width="52" height="52" viewBox="0 0 52 52" fill="none" xmlns="http://www.w3.org/2000/svg">
<path d="M47.25 11.125C47.25 12.8158 46.5784 14.4373 45.3828 15.6328C44.1873 16.8283 42.5658 17.5 40.875 17.5C39.1842 17.5 37.5627 16.8283 36.3672 15.6328C35.1716 14.4373 34.5 12.8158 34.5 11.125C34.5 9.43424 35.1716 7.81274 36.3672 6.61719C37.5627 5.42165 39.1842 4.75 40.875 4.75C42.5658 4.75 44.1873 5.42165 45.3828 6.61719C46.5784 7.81274 47.25 9.43424 47.25 11.125Z" fill="#686868"/>
<path fill-rule="evenodd" clip-rule="evenodd" d="M26 4.75C28.9729 4.75 31.5038 4.75 33.6755 4.83075C32.077 6.6564 31.2324 9.02147 31.3128 11.4467C31.3931 13.8719 32.3925 16.1759 34.1083 17.8917C35.8241 19.6075 38.1281 20.6069 40.5533 20.6872C42.9785 20.7676 45.3436 19.923 47.1692 18.3245C47.25 20.4962 47.25 23.0271 47.25 26C47.25 36.0173 47.25 41.0259 44.1369 44.1369C41.028 47.25 36.0173 47.25 26 47.25C15.9827 47.25 10.9741 47.25 7.861 44.1369C4.75 41.028 4.75 36.0173 4.75 26C4.75 15.9827 4.75 10.9741 7.861 7.861C10.9762 4.75 15.9827 4.75 26 4.75ZM31.3125 23.3438C30.8898 23.3438 30.4844 23.1758 30.1855 22.877C29.8867 22.5781 29.7188 22.1727 29.7188 21.75C29.7188 21.3273 29.8867 20.9219 30.1855 20.623C30.4844 20.3242 30.8898 20.1562 31.3125 20.1562H36.625C37.0477 20.1562 37.4531 20.3242 37.752 20.623C38.0508 20.9219 38.2188 21.3273 38.2188 21.75V27.0625C38.2188 27.4852 38.0508 27.8906 37.752 28.1895C37.4531 28.4883 37.0477 28.6562 36.625 28.6562C36.2023 28.6562 35.7969 28.4883 35.498 28.1895C35.1992 27.8906 35.0312 27.4852 35.0312 27.0625V25.5963L30.7536 29.8739C30.0563 30.5707 29.1108 30.9621 28.125 30.9621C27.1392 30.9621 26.1937 30.5707 25.4964 29.8739L22.1261 26.5036C22.0768 26.4542 22.0182 26.4149 21.9536 26.3881C21.8891 26.3613 21.8199 26.3476 21.75 26.3476C21.6801 26.3476 21.6109 26.3613 21.5464 26.3881C21.4818 26.4149 21.4232 26.4542 21.3739 26.5036L16.5013 31.3762C16.1991 31.6578 15.7995 31.811 15.3866 31.8037C14.9737 31.7965 14.5798 31.6292 14.2878 31.3372C13.9958 31.0452 13.8285 30.6512 13.8213 30.2384C13.814 29.8255 13.9672 29.4259 14.2487 29.1238L19.1214 24.2511C19.8187 23.5543 20.7642 23.1629 21.75 23.1629C22.7358 23.1629 23.6813 23.5543 24.3786 24.2511L27.7489 27.6214C27.7982 27.6708 27.8568 27.7101 27.9214 27.7369C27.9859 27.7637 28.0551 27.7774 28.125 27.7774C28.1949 27.7774 28.2641 27.7637 28.3286 27.7369C28.3932 27.7101 28.4518 27.6708 28.5011 27.6214L32.7766 23.3438H31.3125Z" fill="#686868"/>
</svg>
