<svg width="52" height="53" viewBox="0 0 52 53" fill="none" xmlns="http://www.w3.org/2000/svg">
<path d="M28.3033 8.65686C27.1566 8.68042 26.3331 8.90819 25.7867 9.31659L18.2986 13.4085L14.1352 19.1882C13.2579 20.5705 13.8812 23.2408 16.6209 21.5287L19.6223 17.4917C23.4318 14.1389 31.2046 15.6775 27.5183 22.4083C25.7098 26.3039 26.5563 28.2045 28.8881 29.0056L29.9502 25.3614C31.7895 21.136 35.2218 20.3741 35.0833 16.9655L43.3333 17.5703L43.2563 8.76682L28.3033 8.65686ZM24.1398 16.777C22.8007 16.7535 21.4847 17.319 20.5304 18.1358L17.5214 22.1727C18.3448 22.8403 19.176 22.479 19.9994 21.67C20.9691 22.1727 21.7233 21.3952 22.339 19.8401C22.5929 18.7798 22.97 18.0337 24.1398 16.777ZM18.0139 24.3168C17.9831 24.3168 17.9446 24.3168 17.9138 24.3247C17.6599 24.3796 17.3597 24.6545 17.1597 25.2828C16.9519 25.9112 16.9057 26.8065 17.0904 27.7647C17.2751 28.715 17.6599 29.524 18.0909 30.0266C18.5064 30.5214 18.8912 30.6628 19.1452 30.6078C19.4068 30.5607 19.6993 30.2779 19.8994 29.6575C20.1072 29.0292 20.161 28.126 19.9763 27.1756C19.7839 26.2175 19.3992 25.4085 18.9759 24.9137C18.6065 24.4739 18.2679 24.3168 18.0139 24.3168ZM24.3707 32.7048C23.7627 32.7127 23.0008 32.909 22.2543 33.2781C21.4001 33.7101 20.7305 34.307 20.3688 34.8568C20.0071 35.3987 19.9763 35.8071 20.0918 36.0506C20.2072 36.2862 20.5458 36.514 21.1923 36.5454C21.8387 36.5847 22.7084 36.404 23.5626 35.972C24.4169 35.5401 25.0864 34.951 25.4481 34.4013C25.8098 33.8593 25.8406 33.4431 25.7251 33.2075C25.6097 32.964 25.2711 32.7441 24.6246 32.7127C24.54 32.7048 24.463 32.7048 24.3707 32.7048ZM16.8595 40.2132C16.4978 40.221 16.1669 40.276 15.8744 40.3624C15.2203 40.5587 14.8432 40.9122 14.7201 41.3284C14.5892 41.7525 14.7201 42.2552 15.1587 42.7971C15.6051 43.3312 16.3516 43.8417 17.2751 44.1244C18.1909 44.4072 19.0836 44.3993 19.7455 44.1951C20.4073 43.9988 20.7844 43.6453 20.9075 43.2291C21.0307 42.805 20.9075 42.3023 20.4612 41.7604C20.0225 41.2263 19.276 40.7158 18.3525 40.4331C17.8292 40.276 17.3213 40.2053 16.8595 40.2132Z" fill="#686868"/>
</svg>
