<svg width="52" height="53" fill="none" xmlns="http://www.w3.org/2000/svg"><path d="M28.303 8.657c-1.146.023-1.97.251-2.516.66l-7.488 4.091-4.164 5.78c-.877 1.383-.254 4.053 2.486 2.34l3.001-4.036c3.81-3.353 11.583-1.815 7.896 4.916-1.808 3.896-.962 5.796 1.37 6.598l1.062-3.645c1.84-4.225 5.272-4.987 5.133-8.396l8.25.605-.077-8.803-14.953-.11Zm-4.163 8.12c-1.34-.024-2.655.542-3.61 1.359l-3.009 4.037c.824.667 1.655.306 2.478-.503.97.503 1.724-.275 2.34-1.83.254-1.06.631-1.806 1.8-3.063Zm-6.126 7.54c-.03 0-.07 0-.1.008-.254.055-.554.33-.754.958-.208.628-.254 1.523-.07 2.482.185.95.57 1.759 1 2.262.416.494.801.636 1.055.58.262-.046.554-.33.754-.95.208-.628.262-1.531.077-2.481-.192-.958-.577-1.767-1-2.262-.37-.44-.708-.597-.962-.597Zm6.357 8.388c-.608.008-1.37.204-2.117.573-.854.432-1.524 1.029-1.885 1.579-.362.542-.393.95-.277 1.194.115.235.454.463 1.1.494.647.04 1.516-.141 2.37-.573.855-.432 1.524-1.021 1.886-1.57.362-.543.393-.959.277-1.194-.115-.244-.454-.464-1.1-.495-.085-.008-.162-.008-.254-.008Zm-7.511 7.508a3.767 3.767 0 0 0-.986.15c-.654.196-1.03.55-1.154.965-.13.424 0 .927.439 1.47.446.533 1.193 1.044 2.116 1.326.916.283 1.809.275 2.47.071.662-.196 1.04-.55 1.162-.966.124-.424 0-.927-.446-1.469-.438-.534-1.185-1.044-2.108-1.327a4.94 4.94 0 0 0-1.494-.22Z" fill="#686868"/></svg>