<svg width="54" height="55" viewBox="0 0 54 55" fill="none" xmlns="http://www.w3.org/2000/svg">
<path d="M10.75 7.25C8.54086 7.25 6.75 9.04086 6.75 11.25V43.75C6.75 45.9591 8.54086 47.75 10.75 47.75H43.25C45.4591 47.75 47.25 45.9591 47.25 43.75V11.25C47.25 9.04086 45.4591 7.25 43.25 7.25H10.75ZM40.5 39.875C40.5 40.4963 39.9963 41 39.375 41H14.625C14.0037 41 13.5 40.4963 13.5 39.875V39.875C13.5 39.2537 14.0037 38.75 14.625 38.75H39.375C39.9963 38.75 40.5 39.2537 40.5 39.875V39.875ZM40.5 35.375C40.5 35.9963 39.9963 36.5 39.375 36.5H14.625C14.0037 36.5 13.5 35.9963 13.5 35.375V35.375C13.5 34.7537 14.0037 34.25 14.625 34.25H39.375C39.9963 34.25 40.5 34.7537 40.5 35.375V35.375ZM40.5 23.5C40.5 25.7091 38.7091 27.5 36.5 27.5H17.5C15.2909 27.5 13.5 25.7091 13.5 23.5V18C13.5 15.7909 15.2909 14 17.5 14H36.5C38.7091 14 40.5 15.7909 40.5 18V23.5Z" fill="#686868"/>
</svg>
