<svg width="17" height="16" fill="none" xmlns="http://www.w3.org/2000/svg"><g filter="url('#filter0_d_1_1158')" clip-path="url('#clip0_1_1158')"><path d="m11.972 11.517.327.328 3.29 3.292.048-.048-3.292-3.291-.327-.328.3-.351A6.433 6.433 0 0 0 7.435.5l4.538 11.017Zm0 0-.352.302m.352-.302-.352.302m0 0a6.432 6.432 0 0 1-10.567-5.7A6.433 6.433 0 0 1 7.433.5l4.187 11.319Z" stroke="#A3A3A3" shape-rendering="crispEdges"/></g><defs><clipPath id="clip0_1_1158"><path fill="#fff" transform="translate(.5)" d="M0 0h16v16H0z"/></clipPath><filter id="filter0_d_1_1158" x="-3.499" y="0" width="23.843" height="23.844" filterUnits="userSpaceOnUse" color-interpolation-filters="sRGB"><feFlood flood-opacity="0" result="BackgroundImageFix"/><feColorMatrix in="SourceAlpha" values="0 0 0 0 0 0 0 0 0 0 0 0 0 0 0 0 0 0 127 0" result="hardAlpha"/><feOffset dy="4"/><feGaussianBlur stdDeviation="2"/><feComposite in2="hardAlpha" operator="out"/><feColorMatrix values="0 0 0 0 0 0 0 0 0 0 0 0 0 0 0 0 0 0 0.25 0"/><feBlend in2="BackgroundImageFix" result="effect1_dropShadow_1_1158"/><feBlend in="SourceGraphic" in2="effect1_dropShadow_1_1158" result="shape"/></filter></defs></svg>