<svg width="30" height="30" viewBox="0 0 30 30" fill="none" xmlns="http://www.w3.org/2000/svg">
<path d="M21.25 2.5H8.75C6.625 2.5 5 4.125 5 6.25V13.75H15.75L12.875 10.875C12.375 10.375 12.375 9.625 12.875 9.125C13.375 8.625 14.125 8.625 14.625 9.125L19.625 14.125C20.125 14.625 20.125 15.375 19.625 15.875L14.625 20.875C14.125 21.375 13.375 21.375 12.875 20.875C12.375 20.375 12.375 19.625 12.875 19.125L15.75 16.25H5V23.75C5 25.875 6.625 27.5 8.75 27.5H21.25C23.375 27.5 25 25.875 25 23.75V6.25C25 4.125 23.375 2.5 21.25 2.5Z" fill="white" fill-opacity="0.48"/>
</svg>
