<svg width="34" height="36" fill="none" xmlns="http://www.w3.org/2000/svg"><path fill-rule="evenodd" clip-rule="evenodd" d="M17.088 0h-.176C15.383 0 14.11 0 13.1.139c-1.067.146-2.031.468-2.805 1.258-.775.79-1.091 1.774-1.234 2.862-.097.741-.126 2.509-.133 4.025-3.437.117-5.503.526-6.936 1.99C0 12.306 0 15.578 0 22.121c0 6.542 0 9.814 1.992 11.846C3.983 36 7.19 36 13.6 36h6.8c6.41 0 9.617 0 11.608-2.033C34 31.935 34 28.663 34 22.12c0-6.543 0-9.815-1.992-11.847-1.434-1.464-3.499-1.873-6.936-1.988-.007-1.518-.034-3.286-.133-4.025-.143-1.09-.459-2.073-1.234-2.863C22.93.608 21.967.285 20.9.138 19.89 0 18.615 0 17.088 0Zm5.434 8.244c-.009-1.47-.033-3.05-.11-3.638-.106-.8-.288-1.143-.51-1.369-.22-.225-.557-.41-1.342-.52-.82-.111-1.921-.115-3.56-.115s-2.74.004-3.562.117c-.783.107-1.12.293-1.34.52-.222.226-.404.567-.51 1.367-.077.59-.103 2.169-.11 3.638.665-.003 1.374-.003 2.122-.003h6.8c.75 0 1.457 0 2.122.003ZM17 13.88c.338 0 .663.137.902.38.239.245.373.576.373.92v.018c1.851.475 3.4 1.966 3.4 4.03 0 .345-.134.676-.373.92-.24.244-.564.381-.902.381-.338 0-.662-.137-.902-.38a1.315 1.315 0 0 1-.373-.92c0-.667-.724-1.59-2.125-1.59-1.4 0-2.125.923-2.125 1.59 0 .666.724 1.59 2.125 1.59 2.355 0 4.675 1.666 4.675 4.194 0 2.064-1.549 3.553-3.4 4.03v.017c0 .345-.134.676-.373.92-.24.244-.564.381-.902.381-.338 0-.663-.137-.902-.38a1.315 1.315 0 0 1-.373-.92v-.018c-1.851-.476-3.4-1.966-3.4-4.03 0-.346.134-.676.373-.92.24-.244.564-.382.902-.382.338 0 .662.138.902.382.239.244.373.575.373.92 0 .666.724 1.589 2.125 1.589 1.4 0 2.125-.923 2.125-1.59 0-.666-.724-1.59-2.125-1.59-2.354 0-4.675-1.666-4.675-4.194 0-2.064 1.549-3.555 3.4-4.03v-.017c0-.345.134-.676.373-.92.24-.244.564-.381.902-.381Z" fill="#686868"/></svg>