<svg width="34" height="36" viewBox="0 0 34 36" fill="none" xmlns="http://www.w3.org/2000/svg">
<path fill-rule="evenodd" clip-rule="evenodd" d="M17.0884 0H16.9116C15.3833 0 14.11 7.75579e-08 13.1002 0.138795C12.0326 0.28453 11.0687 0.607229 10.2952 1.39663C9.52 2.18776 9.2038 3.17147 9.061 4.25928C8.9641 5.0001 8.9352 6.768 8.9284 8.28434C5.491 8.40058 3.4255 8.81002 1.9924 10.2743C-2.02656e-07 12.3059 0 15.578 0 22.1205C0 28.6629 -2.02656e-07 31.935 1.9924 33.9667C3.9831 36 7.1893 36 13.6 36H20.4C26.8107 36 30.0169 36 32.0076 33.9667C34 31.935 34 28.6629 34 22.1205C34 15.578 34 12.3059 32.0076 10.2743C30.5745 8.81002 28.509 8.40058 25.0716 8.28607C25.0648 6.768 25.0376 5.0001 24.939 4.26101C24.7962 3.17147 24.48 2.18776 23.7048 1.39836C22.9313 0.607229 21.9674 0.28453 20.8998 0.138795C19.89 7.75579e-08 18.615 0 17.0884 0ZM22.5216 8.24443C22.5131 6.77494 22.4893 5.19441 22.4128 4.60627C22.3057 3.80646 22.1238 3.46294 21.9028 3.2374C21.6818 3.01186 21.3452 2.82622 20.5598 2.71692C19.7404 2.60588 18.6388 2.60241 17 2.60241C15.3612 2.60241 14.2596 2.60588 13.4385 2.71865C12.6548 2.82622 12.3182 3.01186 12.0972 3.23913C11.8762 3.46467 11.6943 3.80646 11.5872 4.60627C11.5107 5.19614 11.4852 6.77494 11.4784 8.24443C12.1431 8.24096 12.852 8.24096 13.6 8.24096H20.4C21.1497 8.24096 21.8569 8.24096 22.5216 8.24443ZM17 13.8795C17.3382 13.8795 17.6625 14.0166 17.9016 14.2606C18.1407 14.5047 18.275 14.8356 18.275 15.1807V15.1981C20.1263 15.6734 21.675 17.1638 21.675 19.2283C21.675 19.5734 21.5407 19.9044 21.3016 20.1484C21.0625 20.3925 20.7382 20.5295 20.4 20.5295C20.0618 20.5295 19.7375 20.3925 19.4984 20.1484C19.2593 19.9044 19.125 19.5734 19.125 19.2283C19.125 18.5621 18.4008 17.6391 17 17.6391C15.5992 17.6391 14.875 18.5621 14.875 19.2283C14.875 19.8946 15.5992 20.8193 17 20.8193C19.3545 20.8193 21.675 22.4848 21.675 25.0126C21.675 27.0772 20.1263 28.5658 18.275 29.0429V29.0602C18.275 29.4053 18.1407 29.7363 17.9016 29.9803C17.6625 30.2244 17.3382 30.3614 17 30.3614C16.6618 30.3614 16.3375 30.2244 16.0984 29.9803C15.8593 29.7363 15.725 29.4053 15.725 29.0602V29.0429C13.8737 28.5675 12.325 27.0772 12.325 25.0126C12.325 24.6675 12.4593 24.3366 12.6984 24.0925C12.9375 23.8485 13.2618 23.7114 13.6 23.7114C13.9382 23.7114 14.2625 23.8485 14.5016 24.0925C14.7407 24.3366 14.875 24.6675 14.875 25.0126C14.875 25.6788 15.5992 26.6018 17 26.6018C18.4008 26.6018 19.125 25.6788 19.125 25.0126C19.125 24.3464 18.4008 23.4217 17 23.4217C14.6455 23.4217 12.325 21.7561 12.325 19.2283C12.325 17.1638 13.8737 15.6734 15.725 15.1981V15.1807C15.725 14.8356 15.8593 14.5047 16.0984 14.2606C16.3375 14.0166 16.6618 13.8795 17 13.8795Z" fill="#686868"/>
</svg>
