<svg width="14" height="14" viewBox="0 0 14 14" fill="none" xmlns="http://www.w3.org/2000/svg">
<path d="M7 14C10.8661 14 14 10.8661 14 7C14 6.6759 13.5142 6.622 13.3469 6.8999C12.9901 7.49094 12.5034 7.99302 11.9238 8.36813C11.3442 8.74323 10.6868 8.98152 10.0015 9.06493C9.31614 9.14835 8.6208 9.07471 7.96813 8.84959C7.31547 8.62448 6.72258 8.25379 6.2344 7.7656C5.74621 7.27741 5.37552 6.68453 5.15041 6.03187C4.92529 5.3792 4.85165 4.68386 4.93507 3.99852C5.01848 3.31318 5.25677 2.6558 5.63187 2.07619C6.00698 1.49658 6.50906 1.00993 7.1001 0.6531C7.378 0.4851 7.3241 0 7 0C3.1339 0 0 3.1339 0 7C0 10.8661 3.1339 14 7 14Z" fill="white"/>
</svg>
